<svg id="图层_1" data-name="图层 1" xmlns="http://www.w3.org/2000/svg" viewBox="0 0 1795 370"><defs><style>.cls-1{fill:#fff;}</style></defs><path class="cls-1" d="M186.3,20.1A164.9,164.9,0,1,0,351.2,185,164.89,164.89,0,0,0,186.3,20.1ZM201.18,213a21.89,21.89,0,1,1-30.94,30.94,42.88,42.88,0,0,0-55.92,0c-.43.46-.88.91-1.35,1.34a21.9,21.9,0,0,1-29.45,0,22.5,22.5,0,0,1-2.82-3.11c-.21-.28-.41-.57-.61-.86-.39-.58-.76-1.18-1.1-1.8a22.71,22.71,0,0,1-1.66-3.93,21.87,21.87,0,0,1-1-6.51h0a21.83,21.83,0,0,1,1-6.51A22.38,22.38,0,0,1,79,218.59c.34-.62.71-1.22,1.1-1.81.2-.29.4-.57.61-.85.42-.57.87-1.11,1.34-1.63a21.87,21.87,0,0,1,2-1.89h0a42.89,42.89,0,0,0,0-54.82,21.9,21.9,0,1,1,29.12-.55,42.88,42.88,0,0,0,0,55.92c.46.43.91.88,1.34,1.34l.41.48a42.89,42.89,0,0,0,54.82,0,22,22,0,0,1,2.36-2.37h0a42.86,42.86,0,0,0,0-54.82,21.89,21.89,0,1,1,29.13-.55,42.88,42.88,0,0,0,0,55.92Zm29.15-6.06a21.9,21.9,0,1,1,21.9-21.9A21.9,21.9,0,0,1,230.33,206.9Zm58.9,6.06c.47.43.91.88,1.34,1.34s.92,1.06,1.34,1.63c.21.28.41.56.61.85.39.59.76,1.19,1.1,1.81A22.06,22.06,0,0,1,296.26,229h0a21.56,21.56,0,0,1-1,6.51,21.92,21.92,0,0,1-1.65,3.93c-.34.62-.71,1.22-1.1,1.8-.2.29-.4.58-.61.86a21.89,21.89,0,0,1-32.27,3.11,22.57,22.57,0,0,1-2.83-3.11c-.21-.28-.41-.57-.61-.86a20.5,20.5,0,0,1-1.09-1.8,21.25,21.25,0,0,1-1.66-3.93,21.88,21.88,0,0,1-1-6.51h0a21.83,21.83,0,0,1,1-6.51,21,21,0,0,1,1.66-3.93c.33-.62.7-1.22,1.09-1.81.2-.29.4-.57.61-.85.42-.57.87-1.11,1.34-1.63a21.87,21.87,0,0,1,2-1.89,42.89,42.89,0,0,0,0-54.82,21.9,21.9,0,1,1,29.12-.55,42.91,42.91,0,0,0,0,55.92Z"/><path class="cls-1" d="M494.78,308.65V61.35H558.1V259.26H669.55v49.39Z"/><polygon class="cls-1" points="1770.59 308.82 1646.9 185.13 1770.49 61.54 1680.91 61.58 1602.78 139.7 1602.78 61.34 1539.46 61.34 1539.46 308.65 1602.78 308.65 1602.78 230.55 1681.07 308.84 1770.59 308.82"/><path class="cls-1" d="M1050.53,260.38l-15.2,48.27H969.48l85.69-247.3h84.43l86.11,247.3h-65.85l-15.2-48.27L1129.47,214l-32.08-103.61L1064.89,214Z"/><path class="cls-1" d="M1327.7,146V308.65h-60.36V61.35H1345l92.44,170.44V61.35h60.37v247.3h-78.1Z"/><path class="cls-1" d="M923.06,213a58.35,58.35,0,0,0-12.42-19.16A56.26,56.26,0,0,0,893.26,182a88.09,88.09,0,0,0-19.69-6,69.17,69.17,0,0,0,17.91-5.85A50.16,50.16,0,0,0,906,159.45a47.38,47.38,0,0,0,9.76-15.79A60.25,60.25,0,0,0,919.34,122a70.12,70.12,0,0,0-3.73-22.71A46.19,46.19,0,0,0,902.84,80q-9-8.32-24-13.48T842,61.34H711.18V308.65h140q37.6,0,57.13-17.91t19.51-50.21Q927.85,224.56,923.06,213ZM774.5,100.84h66.42A43.43,43.43,0,0,1,856,103.15a27.71,27.71,0,0,1,10.11,6.21,23.91,23.91,0,0,1,5.68,8.69,29,29,0,0,1,1.78,10.11q0,12.08-7.28,20.05t-25.37,8H774.5Zm99.39,155.73q-7.27,8-25.37,8h-74V209.2h74a43.43,43.43,0,0,1,15.08,2.31,27.75,27.75,0,0,1,10.11,6.21,24.17,24.17,0,0,1,5.68,8.69,28.91,28.91,0,0,1,1.77,10.11Q881.16,248.59,873.89,256.57Z"/></svg>