<?xml version="1.0" encoding="utf-8"?>
<!-- Generator: Adobe Illustrator 24.3.0, SVG Export Plug-In . SVG Version: 6.00 Build 0)  -->
<svg version="1.1" id="Layer_1" xmlns="http://www.w3.org/2000/svg" xmlns:xlink="http://www.w3.org/1999/xlink" x="0px" y="0px"
	 viewBox="0 0 1000 186" style="enable-background:new 0 0 1000 186;" xml:space="preserve">
<style type="text/css">
	.st0{fill:none;}
	.st1{fill:#FFFFFF;}
	.st2{opacity:0.95;fill-rule:evenodd;clip-rule:evenodd;fill:#FFFFFF;enable-background:new    ;}
</style>
<rect x="708.5" y="62.5" class="st0" width="0.1" height="13.9"/>
<polygon class="st0" points="824.9,152.8 778.6,152.8 778.5,152.9 825,152.9 845.7,120.6 845.6,120.5 "/>
<polygon class="st0" points="846.2,62.9 825.6,32.4 825.5,32.4 846.1,63 "/>
<rect x="760" y="76.4" class="st0" width="0.1" height="29.6"/>
<polygon class="st0" points="708.6,121.6 708.6,106 708.5,106 708.5,121.7 768.9,121.7 768.9,152.9 769,152.9 769,121.6 "/>
<polygon class="st0" points="868.6,90.9 910.6,32.3 866.4,32.3 866.3,32.4 910.5,32.4 868.5,91 913.2,153.4 913.4,153.4 "/>
<rect x="766.7" y="31.8" class="st0" width="0.1" height="30.7"/>
<path class="st1" d="M997.4,87L933,3.9c-1.7-2.2-5-3.9-7.8-3.9H628.6v185.7h300c2.8,0,5-1.1,6.7-3.3l62.7-80.3
	C1000.8,97.6,1000.8,91.5,997.4,87z M769,152.9L769,152.9H668.3h-0.1V31.8h0.1h98.4h0.1v30.7h-0.1h-58.1v13.9H760h0.1V106H760h-51.4
	v15.6H769V152.9L769,152.9L769,152.9z M913.3,153.5h-47v-0.6l-20.6-32.3L825,152.9h-46.5l0.1-0.1h-0.2L822.1,92l-42.6-59.7h45.9
	l0.1,0.1h0.1l20.6,30.5l20.1-30.5h0l0.1-0.1h44.2l-42,58.6l44.8,62.5h-0.2L913.3,153.5z"/>
<path class="st2" d="M26.6,114.5c0.8,6.1,2.5,10.6,5,13.6c4.5,5.5,12.3,8.2,23.2,8.2c6.6,0,11.9-0.7,16-2.2
	c7.8-2.8,11.7-7.9,11.7-15.5c0-4.4-1.9-7.8-5.8-10.2c-3.9-2.3-9.9-4.4-18.2-6.2L44.4,99c-13.9-3-23.5-6.4-28.8-10
	c-9-6.1-13.5-15.8-13.5-28.8c0-11.9,4.3-21.8,13-29.7s21.4-11.8,38.2-11.8c14,0,26,3.7,35.9,11.2c9.9,7.4,15.1,18.2,15.6,32.4H78.2
	c-0.5-8-4-13.7-10.5-17.1c-4.3-2.2-9.7-3.3-16.2-3.3c-7.2,0-12.9,1.4-17.2,4.3c-4.3,2.9-6.4,6.9-6.4,12.1c0,4.8,2.1,8.3,6.3,10.7
	c2.7,1.6,8.5,3.4,17.3,5.5l23,5.5c10.1,2.4,17.7,5.6,22.8,9.7c8,6.3,11.9,15.3,11.9,27.2c0,12.2-4.7,22.3-14,30.3
	s-22.5,12.1-39.4,12.1c-17.3,0-31-4-40.9-11.9C5,139.3,0,128.4,0,114.5H26.6z M117.7,76.4V58.1h13.7V30.6h25.5v27.5h16v18.3h-16v52
	c0,4,0.5,6.6,1.5,7.5c1,1,4.2,1.5,9.4,1.5c0.8,0,1.6,0,2.5,0s1.7-0.1,2.6-0.1v19.2l-12.2,0.5c-12.2,0.4-20.5-1.7-24.9-6.3
	c-2.9-3-4.3-7.5-4.3-13.6V76.4H117.7z M228.3,75.8c-6,0-10.6,1.9-13.9,5.6c-3.3,3.7-5.3,8.8-6.2,15.2h40c-0.4-6.8-2.5-12-6.2-15.5
	C238.3,77.5,233.7,75.8,228.3,75.8z M228.3,54.5c8.2,0,15.6,1.5,22.1,4.6c6.6,3.1,12,7.9,16.3,14.5c3.9,5.8,6.4,12.6,7.5,20.3
	c0.7,4.5,0.9,11,0.8,19.5h-67.4c0.4,9.9,3.5,16.8,9.3,20.8c3.6,2.5,7.8,3.7,12.8,3.7c5.3,0,9.6-1.5,12.9-4.5
	c1.8-1.6,3.4-3.9,4.8-6.8h26.3c-0.7,5.8-3.7,11.8-9.1,17.8c-8.4,9.6-20.2,14.4-35.4,14.4c-12.5,0-23.6-4-33.2-12.1
	c-9.6-8.1-14.4-21.2-14.4-39.4c0-17,4.3-30.1,13-39.2C203.2,59.1,214.5,54.5,228.3,54.5z M346.6,107.8c-1.6,1-3.3,1.9-4.9,2.5
	c-1.7,0.6-3.9,1.2-6.8,1.8l-5.8,1.1c-5.4,1-9.3,2.1-11.7,3.5c-4,2.3-6,6-6,10.9c0,4.4,1.2,7.6,3.7,9.5c2.4,2,5.4,2.9,8.9,2.9
	c5.5,0,10.6-1.6,15.3-4.9c4.7-3.3,7.1-9.2,7.3-17.8V107.8z M331,95.7c4.8-0.6,8.2-1.4,10.2-2.3c3.7-1.6,5.5-4,5.5-7.3
	c0-4-1.4-6.8-4.2-8.4c-2.8-1.5-6.9-2.3-12.3-2.3c-6.1,0-10.4,1.5-12.9,4.5c-1.8,2.2-3,5.2-3.6,9h-24.8c0.5-8.6,3-15.7,7.2-21.2
	c6.8-8.7,18.5-13,35.1-13c10.8,0,20.4,2.1,28.7,6.4c8.4,4.3,12.6,12.3,12.6,24.2v45.2c0,3.1,0.1,6.9,0.2,11.4
	c0.2,3.4,0.7,5.7,1.5,6.9s2.1,2.2,3.8,3v3.8h-28c-0.8-2-1.3-3.9-1.6-5.6c-0.3-1.7-0.5-3.7-0.7-6c-3.6,3.9-7.7,7.1-12.3,9.9
	c-5.5,3.2-11.8,4.8-18.8,4.8c-8.9,0-16.3-2.5-22.1-7.6c-5.8-5.1-8.7-12.3-8.7-21.6c0-12.1,4.7-20.9,14-26.3c5.1-3,12.7-5.1,22.6-6.3
	L331,95.7z M421.5,155.7h-25.8V22.5h25.8V155.7z M436.5,76.4V58.1h13.7V30.6h25.5v27.5h16v18.3h-16v52c0,4,0.5,6.6,1.5,7.5
	c1,1,4.2,1.5,9.4,1.5c0.8,0,1.6,0,2.5,0s1.7-0.1,2.6-0.1v19.2l-12.2,0.5c-12.2,0.4-20.5-1.7-24.9-6.3c-2.9-3-4.3-7.5-4.3-13.6V76.4
	H436.5z M562.6,54.6c6.1,0,11.6,1.1,16.6,3.2c5,2.1,9.1,5.3,12.2,9.7c2.7,3.7,4.4,7.5,5,11.3c0.6,3.9,0.9,10.2,0.9,19v57.8H571V95.7
	c0-5.3-0.9-9.6-2.7-12.8c-2.4-4.6-6.8-6.9-13.4-6.9c-6.8,0-12,2.3-15.5,6.8s-5.3,11-5.3,19.5v53.3h-25.7V22.9h25.7V70
	c3.7-5.7,8.1-9.7,13-12C552,55.8,557.2,54.6,562.6,54.6z"/>
</svg>
