<?xml version="1.0" encoding="utf-8"?>
<!-- Generator: Adobe Illustrator 24.3.0, SVG Export Plug-In . SVG Version: 6.00 Build 0)  -->
<svg version="1.1" id="Layer_1" xmlns="http://www.w3.org/2000/svg" xmlns:xlink="http://www.w3.org/1999/xlink" x="0px" y="0px"
	 viewBox="0 0 710 246" style="enable-background:new 0 0 710 246;" xml:space="preserve">
<style type="text/css">
	.st0{fill:#FFFFFF;}
	.st1{fill-rule:evenodd;clip-rule:evenodd;fill:#FFFFFF;}
</style>
<path class="st0" d="M348.4,83.9c0-4.3-1.5-7.6-4.6-9.9c-3-2.3-8.5-4.8-16.5-7.3c-7.9-2.6-14.2-5.1-18.8-7.6
	c-12.6-6.8-18.9-16-18.9-27.5c0-6,1.7-11.3,5-16c3.4-4.7,8.3-8.4,14.5-11c6.3-2.6,13.5-4,21.3-4c7.9,0,15,1.4,21.2,4.3
	c6.2,2.8,11,6.9,14.4,12.1c3.5,5.2,5.2,11.2,5.2,17.8h-22.9c0-5.1-1.6-9-4.8-11.8c-3.2-2.8-7.7-4.3-13.5-4.3c-5.6,0-9.9,1.2-13,3.6
	c-3.1,2.3-4.6,5.4-4.6,9.3c0,3.6,1.8,6.6,5.4,9.1c3.7,2.4,9,4.7,16.1,6.9c13,3.9,22.5,8.8,28.4,14.5c5.9,5.8,8.9,13,8.9,21.6
	c0,9.6-3.6,17.1-10.9,22.6c-7.3,5.4-17,8.2-29.3,8.2c-8.5,0-16.3-1.5-23.3-4.6c-7-3.1-12.4-7.4-16.1-12.9
	c-3.7-5.4-5.5-11.7-5.5-18.9h22.9c0,12.2,7.3,18.4,21.9,18.4c5.4,0,9.7-1.1,12.7-3.3C346.9,91,348.4,87.9,348.4,83.9z"/>
<path class="st0" d="M473.3,81l14.9-78.9H511L486.4,113h-23l-18.1-74.2L427.2,113h-23L379.6,2.1h22.8l15,78.8l18.3-78.8h19.3
	L473.3,81z"/>
<path class="st0" d="M582.6,90.1h-40.1L535,113h-24.3L551.9,2.1h21.2L614.6,113h-24.3L582.6,90.1z M548.7,71.6h27.7l-13.9-41.5
	L548.7,71.6z"/>
<path class="st0" d="M647.8,73.9V113H625V2.1h43.3c8.3,0,15.6,1.5,21.9,4.6c6.3,3,11.2,7.4,14.6,13c3.4,5.6,5.1,12,5.1,19.1
	c0,10.9-3.7,19.4-11.2,25.7c-7.4,6.2-17.7,9.4-30.8,9.4H647.8z M647.8,55.4h20.4c6,0,10.6-1.4,13.8-4.3c3.2-2.8,4.8-6.9,4.8-12.2
	c0-5.4-1.6-9.8-4.8-13.2c-3.2-3.4-7.6-5.1-13.3-5.2h-20.9V55.4z"/>
<path class="st0" d="M352.8,218.1c0-5.8-2-10.4-6.1-13.8c-4.1-3.4-11.6-6.6-22.5-9.7c-10.9-3.1-18.8-6.4-23.8-10
	c-7.1-5.1-10.7-11.8-10.7-20.1c0-8,3.3-14.6,9.9-19.6c6.6-5.1,15.1-7.6,25.4-7.6c7,0,13.2,1.3,18.7,4c5.5,2.7,9.8,6.5,12.9,11.3
	c3,4.8,4.6,10.2,4.6,16.1h-9c0-7.2-2.5-12.9-7.4-17.3c-4.9-4.4-11.5-6.6-19.8-6.6c-8,0-14.5,1.8-19.2,5.4c-4.8,3.6-7.2,8.2-7.2,14
	c0,5.3,2.1,9.7,6.4,13.1c4.3,3.4,11.2,6.4,20.6,9c9.4,2.6,16.6,5.2,21.5,8c4.9,2.7,8.5,6,11,9.9c2.5,3.9,3.7,8.4,3.7,13.7
	c0,8.3-3.3,14.9-10,19.9c-6.6,5-15.3,7.5-26.2,7.5c-7.4,0-14.2-1.3-20.5-4c-6.2-2.6-10.9-6.4-14.1-11.1c-3.2-4.8-4.8-10.2-4.8-16.4
	h8.9c0,7.4,2.8,13.3,8.3,17.6c5.5,4.3,12.9,6.4,22.1,6.4c8.2,0,14.8-1.8,19.7-5.4C350.4,228.9,352.8,224.1,352.8,218.1z"/>
<path class="st0" d="M388.4,201.1V244h-8.9V138.8h35.8c10.9,0,19.6,2.8,25.9,8.4c6.4,5.6,9.5,13.3,9.5,23.1c0,9.9-3.1,17.5-9.2,22.9
	c-6.1,5.3-14.9,8-26.4,8H388.4z M388.4,193.6h27c8.6,0,15.2-2,19.7-6.1c4.5-4.1,6.8-9.8,6.8-17.1c0-7.3-2.3-13.1-6.8-17.3
	c-4.5-4.3-10.9-6.6-19.2-6.6h-27.5V193.6z"/>
<path class="st0" d="M516.1,214.5h-47.8L457.5,244h-9.3L488,138.8h8.5L536.3,244H527L516.1,214.5z M471.1,206.9h42.2l-21.1-57.3
	L471.1,206.9z"/>
<path class="st0" d="M624,211.2c-1.2,11.1-5.2,19.6-11.9,25.4c-6.7,5.9-15.6,8.8-26.8,8.8c-7.8,0-14.7-2-20.7-5.9
	c-6-3.9-10.6-9.4-13.9-16.5c-3.3-7.2-4.9-15.4-5-24.6v-13.7c0-9.3,1.6-17.6,4.9-24.9c3.3-7.2,8-12.8,14.1-16.7
	c6.2-4,13.2-5.9,21.2-5.9c11.3,0,20.2,3.1,26.7,9.2c6.6,6.1,10.4,14.5,11.4,25.2h-9c-2.2-17.9-11.9-26.8-29.1-26.8
	c-9.5,0-17.2,3.6-22.8,10.7c-5.6,7.1-8.5,17-8.5,29.6V198c0,12.1,2.7,21.8,8.2,29.1c5.5,7.2,13,10.8,22.4,10.8
	c9.3,0,16.3-2.2,21-6.6c4.7-4.5,7.6-11.2,8.7-20.1H624z"/>
<path class="st0" d="M702.2,193.6H653v42.9h56.6v7.5h-65.5V138.8h65.1v7.6H653V186h49.2V193.6z"/>
<path class="st1" d="M244,123c0,67.4-54.6,122-122,122C54.6,245,0,190.4,0,123C0,55.6,54.6,1,122,1C189.4,1,244,55.6,244,123z
	 M195.2,73.4c0,8.7-7,15.7-15.7,15.7c-8.7,0-15.7-7-15.7-15.7c0-8.7,7-15.7,15.7-15.7C188.2,57.7,195.2,64.7,195.2,73.4z
	 M121.2,73.4c15.6,0,28.3-8.5,28.3-18.9s-12.7-18.9-28.3-18.9c-15.6,0-28.3,8.5-28.3,18.9S105.6,73.4,121.2,73.4z"/>
</svg>
